<svg height="512pt" viewBox="0 0 512 512" width="512pt" xmlns="http://www.w3.org/2000/svg"><path d="m368 504.5h-224c-16.570312 0-30-13.429688-30-30v-437c0-16.570312 13.429688-30 30-30h224c16.570312 0 30 13.429688 30 30v437c0 16.570312-13.429688 30-30 30zm0 0" fill="#b5fcff"/><path d="m368 7.5h-30c16.570312 0 30 13.429688 30 30v437c0 16.570312-13.429688 30-30 30h30c16.570312 0 30-13.429688 30-30v-437c0-16.570312-13.429688-30-30-30zm0 0" fill="#71f6fc"/><path d="m114 428.5h284v30h-284zm0 0" fill="#3be3eb"/><path d="m368 428.5h30v30h-30zm0 0" fill="#2bc3d4"/><path d="m368 504.5h-224c-16.570312 0-30-13.429688-30-30v-16h284v16c0 16.570312-13.429688 30-30 30zm0 0" fill="#50536e"/><path d="m368 458.5v16c0 16.570312-13.429688 30-30 30h30c16.570312 0 30-13.429688 30-30v-16zm0 0" fill="#484b63"/><path d="m144 7.5h224c16.570312 0 30 13.429688 30 30v16h-284v-16c0-16.570312 13.429688-30 30-30zm0 0" fill="#50536e"/><path d="m368 7.5h-30c16.570312 0 30 13.429688 30 30v16h30v-16c0-16.570312-13.429688-30-30-30zm0 0" fill="#484b63"/><path d="m164.9375 80.480469h-118.875c-21.296875 0-38.5625 17.265625-38.5625 38.5625v92.875c0 21.296875 17.265625 38.5625 38.5625 38.5625h37.605469c2.929687 49.425781 36.53125 47.140625 49.898437 44.234375 1.070313-.234375 1.039063-1.761719-.039062-1.957032-25.644532-4.597656-14.527344-42.277343-14.527344-42.277343h45.9375c21.296875 0 38.5625-17.265625 38.5625-38.566407v-92.871093c0-21.296875-17.265625-38.5625-38.5625-38.5625zm0 0" fill="#ffd659"/><path d="m164.9375 80.480469h-30c21.296875 0 38.5625 17.265625 38.5625 38.5625v92.875c0 21.296875-17.265625 38.5625-38.5625 38.5625h30c21.296875 0 38.5625-17.265625 38.5625-38.5625v-92.875c0-21.296875-17.265625-38.5625-38.5625-38.5625zm0 0" fill="#ffbd54"/><path d="m147.5 152.578125c0 14.28125-11.382812 31.101563-39.484375 45.90625-1.253906.660156-2.777344.660156-4.03125 0-28.101563-14.804687-39.484375-31.625-39.484375-45.90625 0-12.695313 8.464844-23.597656 20.75-23.597656 9.136719 0 15.277344 4.667969 18.382812 7.816406 1.285157 1.304687 3.449219 1.304687 4.734376 0 3.105468-3.148437 9.246093-7.816406 18.382812-7.816406 12.285156 0 20.75 10.902343 20.75 23.597656zm0 0" fill="#ff2c5c"/><path d="m347.0625 202.480469h118.875c21.296875 0 38.5625 17.265625 38.5625 38.5625v92.871093c0 21.300782-17.265625 38.566407-38.5625 38.566407h-37.601562c-2.933594 49.421875-36.53125 47.140625-49.902344 44.234375-1.070313-.234375-1.039063-1.765625.039062-1.957032 25.644532-4.597656 14.527344-42.277343 14.527344-42.277343h-45.9375c-21.296875 0-38.5625-17.265625-38.5625-38.566407v-92.871093c0-21.296875 17.265625-38.5625 38.5625-38.5625zm0 0" fill="#ffd659"/><path d="m465.9375 202.480469h-30c21.296875 0 38.5625 17.265625 38.5625 38.5625v92.875c0 21.296875-17.265625 38.5625-38.5625 38.5625h30c21.296875 0 38.5625-17.265625 38.5625-38.5625v-92.875c0-21.296875-17.265625-38.5625-38.5625-38.5625zm0 0" fill="#ffbd54"/><path d="m427.5 257.054688c0 11.597656-9.402344 21-21 21s-21-9.402344-21-21c0-11.597657 9.402344-21 21-21s21 9.402343 21 21zm0 0" fill="#4fc6f5"/><path d="m430.652344 320.054688h-48.308594c-5.988281 0-10.84375-4.855469-10.84375-10.84375v-.664063c0-16.839844 13.652344-30.492187 30.492188-30.492187h9.015624c16.839844 0 30.492188 13.652343 30.492188 30.492187v.664063c0 5.988281-4.855469 10.84375-10.847656 10.84375zm0 0" fill="#4fc6f5"/><path d="m160.589844 311.828125h106v30h-106zm0 0" fill="#ff2c5c"/><path d="m106.5 383.667969c0 4.140625 3.359375 7.5 7.5 7.5s7.5-3.359375 7.5-7.5v-80.179688c.152344 0 .304688.007813.457031.007813 5.167969 0 9.78125-.710938 13.203125-1.453125 3.953125-.859375 6.765625-4.414063 6.691406-8.457031-.074218-4.046876-3.019531-7.496094-7-8.210938-3.734374-.667969-6.273437-2.269531-7.988281-5.035156-3.65625-5.894532-3.035156-15.695313-1.875-22.359375h39.949219c25.398438 0 46.0625-20.664063 46.0625-46.0625v-92.875c0-25.398438-20.664062-46.0625-46.0625-46.0625h-43.4375v-11.980469h38.167969c4.140625 0 7.5-3.359375 7.5-7.5s-3.359375-7.5-7.5-7.5h-38.167969v-8.5c0-12.40625 10.09375-22.5 22.5-22.5h224c12.40625 0 22.5 10.09375 22.5 22.5v8.5h-198.832031c-4.144531 0-7.5 3.359375-7.5 7.5s3.355469 7.5 7.5 7.5h198.832031v35c0 4.140625 3.359375 7.5 7.5 7.5s7.5-3.359375 7.5-7.5v-58.5c0-20.679688-16.820312-37.5-37.5-37.5h-224c-20.679688 0-37.5 16.820312-37.5 37.5v35.480469h-60.4375c-25.398438 0-46.0625 20.664062-46.0625 46.0625v92.875c0 25.398437 20.664062 46.0625 46.0625 46.0625h30.765625c2.164063 17.027343 8.371094 29.523437 18.5 37.203125 3.574219 2.710937 7.363281 4.597656 11.171875 5.890625zm-15.347656-133.632813c-.234375-3.960937-3.515625-7.054687-7.488282-7.054687h-37.601562c-17.128906 0-31.0625-13.933594-31.0625-31.0625v-92.875c0-17.128907 13.933594-31.0625 31.0625-31.0625h118.875c17.128906 0 31.0625 13.933593 31.0625 31.0625v92.875c0 17.128906-13.933594 31.0625-31.0625 31.0625h-45.9375c-3.324219 0-6.253906 2.191406-7.191406 5.378906-.730469 2.46875-6.777344 24.269531 1.898437 39.207031-3.226562-.789062-6.425781-2.144531-9.3125-4.335937-7.832031-5.9375-12.289062-17.105469-13.242187-33.195313zm0 0"/><path d="m236 489h40c4.140625 0 7.5-3.359375 7.5-7.5s-3.359375-7.5-7.5-7.5h-40c-4.140625 0-7.5 3.359375-7.5 7.5s3.359375 7.5 7.5 7.5zm0 0"/><path d="m155 152.578125c0-17.4375-12.410156-31.097656-28.25-31.097656-9.441406 0-16.402344 3.886719-20.75 7.371093-4.347656-3.484374-11.308594-7.371093-20.75-7.371093-15.839844 0-28.25 13.660156-28.25 31.097656 0 11.066406 5.648438 32.605469 43.492188 52.542969 1.722656.910156 3.617187 1.363281 5.507812 1.363281 1.894531 0 3.785156-.457031 5.511719-1.363281 37.839843-19.9375 43.488281-41.476563 43.488281-52.542969zm-83 0c0-7.804687 4.644531-16.097656 13.25-16.097656 6.230469 0 10.53125 3.035156 13.039062 5.582031 2.015626 2.042969 4.824219 3.210938 7.710938 3.210938s5.695312-1.171876 7.710938-3.210938c2.507812-2.546875 6.808593-5.582031 13.039062-5.582031 8.605469 0 13.25 8.292969 13.25 16.097656 0 12.789063-12.367188 26.761719-34 38.480469-21.632812-11.722656-34-25.691406-34-38.480469zm0 0"/><path d="m465.9375 194.980469h-60.4375v-67.316407c0-4.140624-3.359375-7.5-7.5-7.5s-7.5 3.359376-7.5 7.5v67.316407h-43.4375c-25.398438 0-46.0625 20.664062-46.0625 46.0625v92.871093c0 25.402344 20.664062 46.066407 46.0625 46.066407h39.941406c1.132813 6.601562 1.773438 16.46875-1.855468 22.339843-1.714844 2.777344-4.257813 4.382813-8 5.054688-3.980469.710938-6.925782 4.164062-7 8.207031-.074219 4.042969 2.738281 7.601563 6.691406 8.460938 3.421875.742187 8.03125 1.449219 13.203125 1.449219.148437 0 .304687-.003907.457031-.003907v25.511719h-269v-35.167969c0-4.140625-3.359375-7.5-7.5-7.5-4.144531 0-7.5 3.359375-7.5 7.5v58.667969c0 20.679688 16.820312 37.5 37.5 37.5h224c20.675781 0 37.5-16.820312 37.5-37.5v-51.425781c3.808594-1.292969 7.59375-3.179688 11.167969-5.890625 10.132812-7.679688 16.339843-20.175782 18.5-37.203125h30.765625c25.402344 0 46.066406-20.664063 46.066406-46.0625v-92.875c0-25.398438-20.664062-46.0625-46.0625-46.0625zm-75.4375 279.519531c0 12.40625-10.09375 22.5-22.5 22.5h-224c-12.40625 0-22.5-10.09375-22.5-22.5v-8.5h269zm106.5-140.582031c0 17.128906-13.933594 31.0625-31.0625 31.0625h-37.605469c-3.96875 0-7.25 3.09375-7.484375 7.054687-.957031 16.089844-5.410156 27.261719-13.242187 33.195313-2.886719 2.191406-6.085938 3.546875-9.3125 4.335937 8.675781-14.941406 2.628906-36.742187 1.898437-39.207031-.9375-3.1875-3.867187-5.378906-7.191406-5.378906h-45.9375c-17.128906 0-31.0625-13.933594-31.0625-31.0625v-92.875c0-17.128907 13.933594-31.0625 31.0625-31.0625h118.875c17.128906 0 31.0625 13.933593 31.0625 31.0625zm0 0"/><path d="m428.675781 274.929688c3.953125-4.890626 6.324219-11.109376 6.324219-17.875 0-15.714844-12.785156-28.5-28.5-28.5s-28.5 12.785156-28.5 28.5c0 6.765624 2.371094 12.980468 6.324219 17.875-12.070313 6.371093-20.324219 19.046874-20.324219 33.617187v.664063c0 10.113281 8.230469 18.34375 18.347656 18.34375h48.308594c10.113281 0 18.34375-8.230469 18.34375-18.34375v-.664063c0-14.570313-8.253906-27.246094-20.324219-33.617187zm-22.175781-31.375c7.445312 0 13.5 6.058593 13.5 13.5 0 7.445312-6.054688 13.5-13.5 13.5s-13.5-6.054688-13.5-13.5c0-7.441407 6.054688-13.5 13.5-13.5zm27.5 65.65625c0 1.84375-1.5 3.34375-3.347656 3.34375h-48.308594c-1.84375 0-3.34375-1.5-3.34375-3.34375v-.664063c0-12.675781 10.3125-22.992187 22.992188-22.992187h9.015624c12.679688 0 22.992188 10.316406 22.992188 22.992187zm0 0"/><path d="m348.109375 92.648438h-106c-4.144531 0-7.5 3.359374-7.5 7.5 0 4.140624 3.355469 7.5 7.5 7.5h106c4.140625 0 7.5-3.359376 7.5-7.5 0-4.140626-3.359375-7.5-7.5-7.5zm0 0"/><path d="m348.109375 122.648438h-106c-4.144531 0-7.5 3.359374-7.5 7.5 0 4.140624 3.355469 7.5 7.5 7.5h106c4.140625 0 7.5-3.359376 7.5-7.5 0-4.140626-3.359375-7.5-7.5-7.5zm0 0"/><path d="m355.609375 160.148438c0-4.140626-3.359375-7.5-7.5-7.5h-106c-4.144531 0-7.5 3.359374-7.5 7.5 0 4.140624 3.355469 7.5 7.5 7.5h106c4.140625 0 7.5-3.359376 7.5-7.5zm0 0"/><path d="m274.089844 311.828125c0-4.140625-3.359375-7.5-7.5-7.5h-106c-4.144532 0-7.5 3.359375-7.5 7.5v30c0 4.140625 3.355468 7.5 7.5 7.5h106c4.140625 0 7.5-3.359375 7.5-7.5zm-15 22.5h-91v-15h91zm0 0"/><path d="m266.589844 364.328125h-106c-4.144532 0-7.5 3.359375-7.5 7.5s3.355468 7.5 7.5 7.5h106c4.140625 0 7.5-3.359375 7.5-7.5s-3.359375-7.5-7.5-7.5zm0 0"/></svg>