<?xml version="1.0" encoding="UTF-8"?>
<!DOCTYPE svg PUBLIC "-//W3C//DTD SVG 1.1//EN" "http://www.w3.org/Graphics/SVG/1.1/DTD/svg11.dtd">
<!-- Creator: CorelDRAW 2018 (64 Bit Versión de evaluación) -->
<svg xmlns="http://www.w3.org/2000/svg" xml:space="preserve" width="215.9mm" height="279.4mm" version="1.1" style="shape-rendering:geometricPrecision; text-rendering:geometricPrecision; image-rendering:optimizeQuality; fill-rule:evenodd; clip-rule:evenodd"
viewBox="0 0 21590 27940"
 xmlns:xlink="http://www.w3.org/1999/xlink">
 <defs>
  <style type="text/css">
   <![CDATA[
    .fil0 {fill:#C6C8C7}
   ]]>
  </style>
 </defs>
 <g id="Capa_x0020_1">
  <metadata id="CorelCorpID_0Corel-Layer"/>
  <g id="_1061726976">
   <g>
    <g>
     <path class="fil0" d="M10791.24 7200.42c-2157.99,0 -3913.66,1755.67 -3913.66,3913.66 0,1336.68 673.76,2518.78 1699.31,3225.11 -957.53,330.41 -1835.15,876.25 -2572.46,1613.54 -1278.6,1278.66 -1982.76,2978.63 -1982.76,4786.85l1057.75 0c0,-3149.52 2562.3,-5711.82 5711.82,-5711.82 2157.99,0 3913.66,-1755.64 3913.66,-3913.66 0.01,-2158.01 -1755.66,-3913.68 -3913.66,-3913.68zm0 6769.58c-1574.75,0 -2855.91,-1281.14 -2855.91,-2855.91 0,-1574.77 1281.17,-2855.92 2855.91,-2855.92 1574.75,0 2855.91,1281.14 2855.91,2855.91 0,1574.77 -1281.16,2855.92 -2855.91,2855.92z" data-original="#000000" data-old_color="#c6c8c7"/>
    </g>
   </g>
  </g>
  <g id="_902806224">
   <g>
    <g>
     <path class="fil0" d="M17897.14 13704.65l-1003.59 -1089.15c-222.94,-241.95 -601.2,-257.43 -843.21,-34.56l-5828.83 5367.93c-182.13,167.5 -324.65,378.29 -412.13,609.67l-5.61 14.84 -574.55 2104.26 2146.44 -397.67 15.22 -4.35c237.99,-67.92 460.03,-192.32 642.37,-359.96l5829.38 -5368.44c117.18,-107.92 185.31,-255.01 191.82,-414.15 6.51,-159.1 -49.35,-311.26 -157.31,-428.42zm-7743.75 6122.81l234.67 -859.49 642.26 697.01 -876.93 162.48zm1500.96 -470.41l-907.27 -984.61 4818.06 -4437.1 907.28 984.61 -4818.07 4437.1zm5309.14 -4889.33l-907.29 -984.62 394.35 -363.16 907.29 984.61 -394.35 363.17z" data-original="#000000" data-old_color="#c6c8c7"/>
    </g>
   </g>
  </g>
 </g>
</svg>
