<?xml version="1.0" encoding="UTF-8"?>
<!DOCTYPE svg PUBLIC "-//W3C//DTD SVG 1.1//EN" "http://www.w3.org/Graphics/SVG/1.1/DTD/svg11.dtd">
<!-- Creator: CorelDRAW 2018 (64 Bit Versión de evaluación) -->
<svg xmlns="http://www.w3.org/2000/svg" xml:space="preserve" width="215.9mm" height="279.4mm" version="1.1" style="shape-rendering:geometricPrecision; text-rendering:geometricPrecision; image-rendering:optimizeQuality; fill-rule:evenodd; clip-rule:evenodd"
viewBox="0 0 21590 27940"
 xmlns:xlink="http://www.w3.org/1999/xlink">
 <defs>
  <style type="text/css">
   <![CDATA[
    .str0 {stroke:#373435;stroke-width:20;stroke-miterlimit:22.9256}
    .fil1 {fill:#6B809B}
    .fil0 {fill:#5E5E5E}
    .fil2 {fill:#5E5E5E}
   ]]>
  </style>
 </defs>
 <g id="Capa_x0020_1">
  <metadata id="CorelCorpID_0Corel-Layer"/>
  <path class="fil0 str0" d="M10791.24 7200.42c-2157.99,0 -3913.66,1755.67 -3913.66,3913.66 0,1336.68 673.76,2518.78 1699.31,3225.11 -957.53,330.41 -1835.15,876.25 -2572.46,1613.54 -1278.6,1278.66 -1982.76,2978.63 -1982.76,4786.85l1057.75 0c0,-3149.52 2562.3,-5711.82 5711.82,-5711.82 2157.99,0 3913.66,-1755.64 3913.66,-3913.66 0.01,-2158.01 -1755.66,-3913.68 -3913.66,-3913.68zm0 6769.58c-1574.75,0 -2855.91,-1281.14 -2855.91,-2855.91 0,-1574.77 1281.17,-2855.92 2855.91,-2855.92 1574.75,0 2855.91,1281.14 2855.91,2855.91 0,1574.77 -1281.16,2855.92 -2855.91,2855.92z"/>
  <path class="fil1 str0" d="M10791.24 13970c-1574.75,0 -2855.91,-1281.14 -2855.91,-2855.91 0,-1574.77 1281.17,-2855.92 2855.91,-2855.92 1574.75,0 2855.91,1281.14 2855.91,2855.91 0,1574.77 -1281.16,2855.92 -2855.91,2855.92zm-3913.66 -2855.92c0,1336.68 673.76,2518.78 1699.31,3225.11 -957.53,330.41 -1835.15,876.25 -2572.46,1613.54 -1278.6,1278.66 -1982.76,2978.63 -1982.76,4786.85l1057.75 0c0,-3149.52 2562.3,-5711.82 5711.82,-5711.82 2157.99,0 3913.66,-1755.64 3913.66,-3913.66 0.01,-2158.01 -1755.66,-3913.68 -3913.66,-3913.68 -2157.99,0 -3913.66,1755.67 -3913.66,3913.66z"/>
  <path class="fil1 str0" d="M10791.24 13970c-1574.75,0 -2855.91,-1281.14 -2855.91,-2855.91 0,-1574.77 1281.17,-2855.92 2855.91,-2855.92 1574.75,0 2855.91,1281.14 2855.91,2855.91 0,1574.77 -1281.16,2855.92 -2855.91,2855.92zm-3913.66 -2855.92c0,1336.68 673.76,2518.78 1699.31,3225.11 -957.53,330.41 -1835.15,876.25 -2572.46,1613.54 -1278.6,1278.66 -1982.76,2978.63 -1982.76,4786.85l1057.75 0c0,-3149.52 2562.3,-5711.82 5711.82,-5711.82 2157.99,0 3913.66,-1755.64 3913.66,-3913.66 0.01,-2158.01 -1755.66,-3913.68 -3913.66,-3913.68 -2157.99,0 -3913.66,1755.67 -3913.66,3913.66z"/>
 </g>
 <g id="Capa_x0020_1_0">
  <metadata id="CorelCorpID_1Corel-Layer"/>
  <g id="_1059228016">
   <g>
    <g>
     <polygon class="fil2" points="17568.33,16164.82 16820.41,15416.9 14916.47,17320.84 13012.53,15416.9 12264.58,16164.82 14168.52,18068.77 12264.58,19972.71 13012.53,20720.63 14916.47,18816.69 16820.41,20720.63 17568.33,19972.71 15664.39,18068.77 " data-original="#000000" data-old_color="#c6c8c7"/>
    </g>
   </g>
   <g>
    <g>
     <path class="fil2" d="M10791.24 7200.42c-2157.99,0 -3913.66,1755.67 -3913.66,3913.66 0,1336.68 673.76,2518.78 1699.31,3225.11 -957.53,330.41 -1835.15,876.25 -2572.46,1613.54 -1278.6,1278.66 -1982.76,2978.63 -1982.76,4786.85l1057.75 0c0,-3149.52 2562.3,-5711.82 5711.82,-5711.82 2157.99,0 3913.66,-1755.64 3913.66,-3913.66 0.01,-2158.01 -1755.66,-3913.68 -3913.66,-3913.68zm0 6769.58c-1574.75,0 -2855.91,-1281.14 -2855.91,-2855.91 0,-1574.77 1281.17,-2855.92 2855.91,-2855.92 1574.75,0 2855.91,1281.14 2855.91,2855.91 0,1574.77 -1281.16,2855.92 -2855.91,2855.92z" data-original="#000000" data-old_color="#c6c8c7"/>
    </g>
   </g>
  </g>
 </g>
</svg>
